<?xml version="1.0" standalone="no"?>
<!DOCTYPE svg PUBLIC "-//W3C//DTD SVG 20010904//EN"
 "http://www.w3.org/TR/2001/REC-SVG-20010904/DTD/svg10.dtd">
<svg version="1.0" xmlns="http://www.w3.org/2000/svg"
 width="300.000000pt" height="55.000000pt" viewBox="0 0 300.000000 55.000000"
 preserveAspectRatio="xMidYMid meet">
<metadata>
Created by potrace 1.10, written by Peter Selinger 2001-2011
</metadata>
<g transform="translate(0.000000,55.000000) scale(0.100000,-0.100000)"
fill="#000000" stroke="none">
<path d="M262 454 c-32 -22 -47 -57 -72 -169 -30 -132 -31 -134 -77 -126 -60
11 -97 0 -101 -28 -2 -13 2 -28 10 -32 22 -14 82 -10 107 7 21 15 27 15 80 0
71 -20 97 -20 105 -1 4 11 -2 15 -20 15 -24 0 -114 20 -114 25 0 1 6 21 14 43
8 23 22 80 32 127 18 91 43 135 76 135 17 0 19 -5 15 -37 -3 -21 -8 -49 -12
-62 -6 -18 -5 -23 6 -19 8 2 20 23 28 46 11 37 11 45 -3 67 -19 29 -42 32 -74
9z m-142 -324 c11 -7 9 -11 -13 -19 -16 -6 -33 -11 -38 -11 -20 0 -50 21 -44
31 8 12 75 12 95 -1z"/>
<path d="M1963 453 c-4 -9 -16 -62 -28 -117 l-21 -101 -58 -3 c-52 -3 -56 -2
-48 15 18 33 61 203 52 208 -15 9 -30 -23 -54 -119 -28 -109 -67 -188 -105
-212 -16 -11 -44 -17 -73 -16 -26 0 -50 -3 -53 -9 -11 -17 23 -21 79 -9 43 9
62 19 90 50 19 21 40 48 46 60 l12 22 28 -27 c15 -14 36 -42 46 -61 10 -19 23
-34 29 -34 8 0 85 328 85 363 0 14 -21 7 -27 -10z m-54 -245 c-1 -7 -4 -23 -7
-36 -7 -23 -7 -23 -41 12 l-35 36 42 0 c27 0 42 -4 41 -12z"/>
<path d="M2614 445 c-65 -39 -127 -133 -140 -212 -7 -49 14 -105 50 -129 37
-23 106 -14 151 20 46 36 45 52 -2 20 -48 -32 -77 -39 -112 -24 -93 38 -53
241 63 311 17 10 41 19 54 19 52 0 30 -65 -33 -97 -25 -13 -32 -22 -25 -32 18
-31 110 57 110 106 0 48 -53 56 -116 18z"/>
<path d="M845 360 c-8 -14 3 -30 21 -30 8 0 14 9 14 20 0 21 -24 28 -35 10z"/>
<path d="M2207 364 c-9 -10 4 -34 19 -34 8 0 14 9 14 20 0 19 -19 27 -33 14z"/>
<path d="M690 266 c0 -14 5 -28 10 -31 7 -4 5 -14 -5 -28 -8 -12 -15 -25 -15
-30 0 -15 21 5 30 29 5 13 16 24 25 24 13 0 12 -6 -5 -40 -22 -43 -26 -85 -10
-95 13 -8 60 21 60 37 0 6 -8 4 -19 -6 -31 -28 -34 -2 -7 66 14 34 24 64 22
66 -3 2 -13 -1 -24 -7 -18 -9 -21 -8 -24 11 -4 33 -38 37 -38 4z"/>
<path d="M2250 266 c0 -14 5 -28 11 -31 7 -5 5 -15 -6 -32 -9 -14 -14 -27 -11
-30 3 -3 13 8 23 26 27 47 48 40 23 -9 -21 -42 -26 -85 -10 -95 12 -7 70 22
70 35 0 15 -16 12 -30 -5 -8 -10 -17 -12 -22 -7 -6 6 0 34 16 73 14 35 24 65
22 67 -3 2 -13 -1 -24 -7 -18 -9 -21 -8 -24 11 -4 33 -38 37 -38 4z"/>
<path d="M381 243 c-59 -41 -69 -153 -13 -153 8 0 27 14 43 31 16 17 27 25 24
17 -3 -7 0 -21 7 -31 12 -16 15 -16 36 -2 12 9 22 21 22 28 0 8 -3 8 -12 -1
-31 -31 -37 5 -14 80 l13 45 -43 1 c-23 0 -52 -6 -63 -15z m64 -13 c9 -15 -33
-98 -55 -110 -31 -17 -44 11 -25 56 8 21 20 43 26 51 14 15 45 17 54 3z"/>
<path d="M540 235 c-5 -13 -12 -46 -16 -73 -5 -38 -3 -51 11 -62 15 -12 21
-12 44 2 25 14 29 14 38 -1 9 -14 12 -14 32 3 24 22 29 45 6 26 -26 -22 -30
-2 -13 63 9 34 14 64 12 66 -10 10 -34 -11 -34 -31 0 -43 -21 -98 -42 -109
-34 -18 -41 2 -24 69 19 71 19 72 6 72 -6 0 -15 -11 -20 -25z"/>
<path d="M831 246 c-6 -7 -14 -43 -18 -78 -6 -73 5 -92 38 -62 22 20 26 42 4
24 -9 -7 -18 -10 -22 -6 -6 6 8 82 22 119 8 20 -8 23 -24 3z"/>
<path d="M922 238 c-22 -24 -42 -69 -42 -94 0 -20 37 -54 59 -54 23 0 69 36
59 46 -5 4 -17 -1 -29 -11 -15 -15 -24 -17 -37 -9 -28 18 -24 38 8 53 36 15
65 54 56 76 -8 22 -50 18 -74 -7z m27 -44 c-12 -13 -26 -24 -30 -24 -13 0 2
37 24 61 20 21 22 22 25 5 2 -10 -6 -29 -19 -42z"/>
<path d="M1056 251 c-5 -7 -36 -144 -36 -156 0 -3 6 -2 14 1 7 3 18 22 24 42
13 41 66 111 77 100 4 -4 3 -32 -2 -63 -8 -41 -7 -60 3 -73 11 -16 13 -16 33
2 24 22 29 45 6 26 -25 -20 -29 -4 -16 55 7 30 10 59 6 65 -13 21 -44 9 -74
-27 l-31 -37 10 34 c6 19 10 36 10 37 0 7 -19 2 -24 -6z"/>
<path d="M1220 245 c0 -10 10 -15 30 -15 17 0 30 -3 30 -6 0 -3 -20 -30 -45
-58 -25 -29 -45 -56 -45 -60 0 -3 27 -6 60 -6 33 0 60 4 60 10 0 6 -20 10 -45
10 l-46 0 51 62 c27 35 50 66 50 70 0 5 -22 8 -50 8 -38 0 -50 -4 -50 -15z"/>
<path d="M1374 242 c-62 -49 -57 -152 7 -152 34 0 80 51 86 96 9 66 -43 97
-93 56z m63 -55 c-9 -64 -67 -105 -82 -58 -7 23 19 91 42 108 27 21 46 -3 40
-50z"/>
<path d="M2038 249 c-48 -27 -80 -115 -53 -143 22 -21 28 -20 64 10 22 18 31
22 31 11 0 -27 24 -38 48 -21 12 8 19 20 16 26 -4 6 -9 5 -15 -3 -6 -10 -11
-11 -19 -3 -7 7 -6 25 5 60 8 27 15 54 15 59 0 14 -70 17 -92 4z m57 -19 c8
-12 -27 -80 -54 -104 -45 -41 -53 33 -10 89 21 25 53 33 64 15z"/>
<path d="M2192 247 c-6 -7 -14 -42 -18 -79 -7 -73 4 -92 37 -62 22 20 26 42 4
24 -9 -7 -18 -10 -22 -6 -6 5 10 84 24 124 7 16 -12 16 -25 -1z"/>
<path d="M2774 242 c-62 -50 -57 -152 8 -152 11 0 35 15 54 34 26 26 34 42 34
69 0 61 -50 87 -96 49z m66 -39 c0 -47 -28 -93 -57 -93 -20 0 -23 5 -23 35 0
39 22 91 42 98 25 8 38 -6 38 -40z"/>
<path d="M2921 137 c-25 -25 -2 -59 24 -37 8 7 15 18 15 25 0 18 -25 26 -39
12z"/>
</g>
</svg>
